<?xml version="1.0" encoding="utf-8"?>
<svg width="32" height="32" viewBox="0 0 32 32" fill="none" xmlns="http://www.w3.org/2000/svg">
    <path d="M27.5827 4.22559L17.5732 10.4019L19.6044 6.19582L27.5827 4.22559Z" fill="#E17726" stroke="#E17726" stroke-width="0.25" stroke-linecap="round" stroke-linejoin="round"/>
    <path d="M4.41748 4.22559L14.3387 10.4673L12.3958 6.19582L4.41748 4.22559Z" fill="#E27625" stroke="#E27625" stroke-width="0.25" stroke-linecap="round" stroke-linejoin="round"/>
    <path d="M23.8511 21.4122L21.0488 25.7851L26.8999 27.4721L28.5869 21.5082L23.8511 21.4122Z" fill="#E27625" stroke="#E27625" stroke-width="0.25" stroke-linecap="round" stroke-linejoin="round"/>
    <path d="M3.42285 21.5082L5.10037 27.4721L10.9515 25.7851L8.14915 21.4122L3.42285 21.5082Z" fill="#E27625" stroke="#E27625" stroke-width="0.25" stroke-linecap="round" stroke-linejoin="round"/>
    <path d="M10.6074 14.2429L8.85156 16.7779L14.6478 17.0659L14.4558 10.8223L10.6074 14.2429Z" fill="#E27625" stroke="#E27625" stroke-width="0.25" stroke-linecap="round" stroke-linejoin="round"/>
    <path d="M21.3926 14.2429L17.4961 10.7571L17.3521 17.0659L23.1483 16.7779L21.3926 14.2429Z" fill="#E27625" stroke="#E27625" stroke-width="0.25" stroke-linecap="round" stroke-linejoin="round"/>
    <path d="M10.9512 25.7851L14.2961 24.0294L11.4297 21.5561L10.9512 25.7851Z" fill="#E27625" stroke="#E27625" stroke-width="0.25" stroke-linecap="round" stroke-linejoin="round"/>
    <path d="M17.7031 24.0294L21.0481 25.7851L20.5696 21.5561L17.7031 24.0294Z" fill="#E27625" stroke="#E27625" stroke-width="0.25" stroke-linecap="round" stroke-linejoin="round"/>
</svg>